<svg width="750pt" height="689pt" viewBox="0 0 750 689" version="1.1" xmlns="http://www.w3.org/2000/svg">
          <g id="#f7f7f7ff">
          <path fill="#f7f7f7" opacity="1.00" d=" M 411.40 0.00 L 442.54 0.00 C 472.09 1.32 501.73 2.46 531.01 6.98 C 546.48 8.80 561.80 11.68 577.15 14.29 C 601.84 19.78 626.44 25.82 650.56 33.48 C 656.65 35.36 662.62 37.60 668.77 39.32 C 696.31 49.81 724.09 60.01 750.00 74.20 L 750.00 347.90 C 748.31 364.21 749.05 380.63 749.04 397.00 C 749.01 401.76 749.73 406.48 750.00 411.24 L 750.00 513.80 C 749.90 518.51 749.58 523.22 749.19 527.92 C 748.58 539.92 749.67 551.99 748.24 563.95 C 747.87 573.00 747.95 582.07 748.16 591.13 C 748.80 596.84 749.79 602.51 750.00 608.28 L 750.00 689.00 L 127.30 689.00 C 124.21 688.90 121.13 688.70 118.05 688.46 C 112.28 687.92 106.53 688.90 100.77 689.00 L 14.32 689.00 C 11.73 688.15 8.46 686.42 6.23 689.00 L 0.00 689.00 L 0.00 93.99 L 1.91 94.01 C 1.72 93.60 1.34 92.80 1.14 92.40 C 11.10 89.61 20.56 85.37 30.18 81.65 C 35.49 79.88 40.82 78.10 46.01 75.96 C 55.44 72.80 64.84 69.55 74.21 66.20 C 152.10 39.59 232.23 18.90 313.91 8.09 C 322.98 7.34 331.89 5.29 341.01 4.97 C 357.59 3.10 374.27 2.12 390.92 1.00 C 397.76 1.03 404.63 1.21 411.40 0.00 Z" />
          </g>
          <g id="#d4d8d974">
          <path fill="#d4d8d9" opacity="0.45" d=" M 32.89 80.04 C 37.27 78.69 41.52 76.90 46.01 75.96 C 40.82 78.10 35.49 79.88 30.18 81.65 C 30.92 80.88 31.83 80.27 32.89 80.04 Z" />
          </g>
        </svg>